shantell-semi_organic_normalized--semibold.ufo
<glyph name="period" format="2">
	<unicode hex="002E"/>
	<advance width="287"/>
	<outline>
		<contour>
			<point x="162" y="-13" type="curve" smooth="yes"/>
			<point x="211" y="-13"/>
			<point x="234" y="17"/>
			<point x="234" y="49" type="curve" smooth="yes"/>
			<point x="234" y="102"/>
			<point x="199" y="158"/>
			<point x="123" y="158" type="curve" smooth="yes"/>
			<point x="84" y="158"/>
			<point x="52" y="131"/>
			<point x="52" y="86" type="curve" smooth="yes"/>
			<point x="52" y="26"/>
			<point x="94" y="-13"/>
		</contour>
	</outline>
</glyph>
<glyph name="zero" format="2">
	<unicode hex="0030"/>
	<advance width="700"/>
	<image fileName="zero.png" xScale="2.3662938837" yScale="2.3662938837" xOffset="-8471.8248343698" yOffset="-212.644631698" color="0,0,0,0.16492"/>
	<outline>
		<contour>
			<point x="299" y="540" type="curve" smooth="yes"/>
			<point x="233" y="492"/>
			<point x="171" y="381"/>
			<point x="171" y="270" type="curve" smooth="yes"/>
			<point x="171" y="178"/>
			<point x="219" y="109"/>
			<point x="317" y="109" type="curve" smooth="yes"/>
			<point x="426" y="109"/>
			<point x="528" y="217"/>
			<point x="528" y="417" type="curve" smooth="yes"/>
			<point x="528" y="517"/>
			<point x="496" y="591"/>
			<point x="400" y="591" type="curve" smooth="yes"/>
			<point x="336" y="591"/>
			<point x="262" y="550"/>
			<point x="217" y="497" type="curve" smooth="yes"/>
			<point x="196" y="472"/>
			<point x="157" y="468"/>
			<point x="133" y="489" type="curve" smooth="yes"/>
			<point x="108" y="510"/>
			<point x="104" y="549"/>
			<point x="125" y="573" type="curve" smooth="yes"/>
			<point x="192" y="654"/>
			<point x="306" y="711"/>
			<point x="400" y="711" type="curve" smooth="yes"/>
			<point x="573" y="711"/>
			<point x="648" y="599"/>
			<point x="648" y="417" type="curve" smooth="yes"/>
			<point x="648" y="128"/>
			<point x="479" y="-11"/>
			<point x="317" y="-11" type="curve" smooth="yes"/>
			<point x="170" y="-11"/>
			<point x="51" y="74"/>
			<point x="51" y="270" type="curve" smooth="yes"/>
			<point x="51" y="421"/>
			<point x="137" y="572"/>
			<point x="229" y="638" type="curve" smooth="yes"/>
			<point x="255" y="657"/>
			<point x="294" y="650"/>
			<point x="313" y="624" type="curve" smooth="yes"/>
			<point x="332" y="598"/>
			<point x="325" y="559"/>
		</contour>
	</outline>
</glyph>
<glyph name="two" format="2">
	<unicode hex="0032"/>
	<advance width="700"/>
	<image fileName="zero.png" xScale="2.3662938837" yScale="2.3662938837" xOffset="-763.8248343698" yOffset="-212.644631698" color="0,0,0,0.16492"/>
	<outline>
		<contour>
			<point x="117" y="615" type="curve" smooth="yes"/>
			<point x="201" y="677"/>
			<point x="289" y="713"/>
			<point x="378" y="713" type="curve" smooth="yes"/>
			<point x="531" y="713"/>
			<point x="590" y="629"/>
			<point x="590" y="509" type="curve" smooth="yes"/>
			<point x="590" y="397"/>
			<point x="525" y="264"/>
			<point x="250" y="75" type="curve" smooth="yes"/>
			<point x="203" y="44"/>
			<point x="184" y="102"/>
			<point x="234" y="102" type="curve" smooth="yes"/>
			<point x="303" y="102"/>
			<point x="397" y="120"/>
			<point x="546" y="120" type="curve" smooth="yes"/>
			<point x="625" y="120"/>
			<point x="649" y="86"/>
			<point x="649" y="47" type="curve" smooth="yes"/>
			<point x="649" y="20"/>
			<point x="629" y="0"/>
			<point x="589" y="0" type="curve" smooth="yes"/>
			<point x="375" y="0"/>
			<point x="263" y="-20"/>
			<point x="178" y="-20" type="curve" smooth="yes"/>
			<point x="113" y="-20"/>
			<point x="76" y="15"/>
			<point x="81" y="81" type="curve" smooth="yes"/>
			<point x="83" y="100"/>
			<point x="93" y="117"/>
			<point x="109" y="127" type="curve" smooth="yes"/>
			<point x="377" y="297"/>
			<point x="470" y="407"/>
			<point x="470" y="509" type="curve" smooth="yes"/>
			<point x="470" y="561"/>
			<point x="441" y="593"/>
			<point x="378" y="593" type="curve" smooth="yes"/>
			<point x="313.7386363636" y="593"/>
			<point x="252" y="565"/>
			<point x="204" y="531" type="curve" smooth="yes"/>
			<point x="180" y="514"/>
			<point x="160" y="507"/>
			<point x="146" y="507" type="curve" smooth="yes"/>
			<point x="119" y="507"/>
			<point x="93" y="539"/>
			<point x="93" y="573" type="curve" smooth="yes"/>
			<point x="93" y="590"/>
			<point x="101" y="604"/>
		</contour>
	</outline>
</glyph>
<glyph name="three" format="2">
	<unicode hex="0033"/>
	<advance width="700"/>
	<image fileName="one.glif-R_egular.tif000000000000001" xScale="2.4058451983" yScale="2.4058451983" xOffset="-2154.3122690595" yOffset="-242.5277257882" color="0,0,0,0.16492"/>
	<outline>
		<contour>
			<point x="64" y="620"/>
			<point x="208" y="712"/>
			<point x="372" y="712" type="curve" smooth="yes"/>
			<point x="513" y="712"/>
			<point x="580" y="644"/>
			<point x="580" y="540" type="curve" smooth="yes"/>
			<point x="580" y="469"/>
			<point x="537" y="408"/>
			<point x="447" y="374" type="curve"/>
			<point x="450" y="399" type="line"/>
			<point x="569" y="378"/>
			<point x="638" y="320"/>
			<point x="638" y="218" type="curve" smooth="yes"/>
			<point x="638" y="83"/>
			<point x="499" y="-12"/>
			<point x="287" y="-12" type="curve"/>
			<point x="115" y="-12"/>
			<point x="82" y="44"/>
			<point x="82" y="99" type="curve" smooth="yes"/>
			<point x="82" y="124"/>
			<point x="94" y="144"/>
			<point x="118" y="144" type="curve" smooth="yes"/>
			<point x="158" y="144"/>
			<point x="174" y="108"/>
			<point x="267" y="108" type="curve" smooth="yes"/>
			<point x="402" y="108"/>
			<point x="518" y="152"/>
			<point x="518" y="218" type="curve" smooth="yes"/>
			<point x="518" y="282"/>
			<point x="395" y="302"/>
			<point x="297" y="301" type="curve" smooth="yes"/>
			<point x="256" y="301"/>
			<point x="234" y="338"/>
			<point x="234" y="376" type="curve" smooth="yes"/>
			<point x="234" y="392"/>
			<point x="244" y="408"/>
			<point x="267" y="414" type="curve" smooth="yes"/>
			<point x="364" y="441"/>
			<point x="456" y="469"/>
			<point x="456" y="542" type="curve" smooth="yes"/>
			<point x="456" y="585"/>
			<point x="412" y="592"/>
			<point x="372" y="592" type="curve" smooth="yes"/>
			<point x="225.0612308626" y="592"/>
			<point x="150.9594207663" y="509"/>
			<point x="120" y="509" type="curve" smooth="yes"/>
			<point x="94" y="509"/>
			<point x="64" y="532"/>
			<point x="64" y="563" type="curve" smooth="yes"/>
		</contour>
	</outline>
</glyph>
<glyph name="four" format="2">
	<unicode hex="0034"/>
	<advance width="700"/>
	<image fileName="one.glif-R_egular.tif" xScale="2.4058451983" yScale="2.4058451983" xOffset="-2902.3122690595" yOffset="-267.5277257882" color="0,0,0,0.16492"/>
	<outline>
		<contour>
			<point x="351" y="157" type="curve" smooth="yes"/>
			<point x="351" y="296"/>
			<point x="397" y="428"/>
			<point x="397" y="551" type="curve" smooth="yes"/>
			<point x="397" y="579"/>
			<point x="393" y="598"/>
			<point x="386" y="625" type="curve"/>
			<point x="420" y="582" type="line"/>
			<point x="328" y="544"/>
			<point x="223" y="421"/>
			<point x="144" y="265" type="curve"/>
			<point x="117" y="304" type="line"/>
			<point x="151" y="290"/>
			<point x="160" y="290"/>
			<point x="183" y="290" type="curve" smooth="yes"/>
			<point x="312" y="290"/>
			<point x="418" y="352"/>
			<point x="593" y="352" type="curve" smooth="yes"/>
			<point x="641" y="352"/>
			<point x="674" y="318"/>
			<point x="674" y="279" type="curve" smooth="yes"/>
			<point x="674" y="252"/>
			<point x="658" y="232"/>
			<point x="619" y="232" type="curve" smooth="yes"/>
			<point x="427" y="232"/>
			<point x="317" y="170"/>
			<point x="165" y="170" type="curve" smooth="yes"/>
			<point x="86" y="170"/>
			<point x="30" y="221"/>
			<point x="30" y="272" type="curve" smooth="yes"/>
			<point x="30" y="299"/>
			<point x="33" y="311"/>
			<point x="48" y="341" type="curve" smooth="yes"/>
			<point x="163" y="563"/>
			<point x="342" y="715"/>
			<point x="425" y="715" type="curve" smooth="yes"/>
			<point x="491" y="715"/>
			<point x="520" y="634"/>
			<point x="520" y="563" type="curve" smooth="yes"/>
			<point x="520" y="415"/>
			<point x="472" y="305"/>
			<point x="472" y="148" type="curve" smooth="yes"/>
			<point x="472" y="95"/>
			<point x="482" y="72"/>
			<point x="482" y="43" type="curve" smooth="yes"/>
			<point x="482" y="9"/>
			<point x="458" y="-11"/>
			<point x="422" y="-11" type="curve" smooth="yes"/>
			<point x="371" y="-11"/>
			<point x="351" y="39"/>
		</contour>
	</outline>
</glyph>
<glyph name="five" format="2">
	<unicode hex="0035"/>
	<advance width="700"/>
	<image fileName="one.glif-R_egular.tif" xScale="2.4058451983" yScale="2.4058451983" xOffset="-5287.3122690595" yOffset="-267.5277257882" color="0,0,0,0.16492"/>
	<outline>
		<contour>
			<point x="581" y="596" type="curve" smooth="yes"/>
			<point x="429" y="596"/>
			<point x="359.0166899744" y="576.9311424576"/>
			<point x="180" y="580" type="curve"/>
			<point x="238" y="622" type="line"/>
			<point x="230" y="595"/>
			<point x="186" y="497"/>
			<point x="215" y="488" type="curve" smooth="yes"/>
			<point x="252" y="477"/>
			<point x="319" y="464"/>
			<point x="384" y="451" type="curve" smooth="yes"/>
			<point x="576" y="411"/>
			<point x="621" y="337"/>
			<point x="621" y="243" type="curve" smooth="yes"/>
			<point x="621" y="102"/>
			<point x="475" y="-12"/>
			<point x="252" y="-12" type="curve" smooth="yes"/>
			<point x="156" y="-12"/>
			<point x="112" y="26"/>
			<point x="112" y="83" type="curve" smooth="yes"/>
			<point x="112" y="115"/>
			<point x="131" y="140"/>
			<point x="169" y="140" type="curve" smooth="yes"/>
			<point x="199" y="140"/>
			<point x="190.4666666667" y="108"/>
			<point x="239" y="108" type="curve" smooth="yes"/>
			<point x="371" y="108"/>
			<point x="501" y="156"/>
			<point x="501" y="239" type="curve" smooth="yes"/>
			<point x="501" y="297"/>
			<point x="440" y="317"/>
			<point x="360" y="333" type="curve" smooth="yes"/>
			<point x="291" y="347"/>
			<point x="220" y="361"/>
			<point x="179" y="374" type="curve" smooth="yes"/>
			<point x="100" y="399"/>
			<point x="59" y="454"/>
			<point x="120" y="644" type="curve" smooth="yes"/>
			<point x="132" y="683"/>
			<point x="155" y="700"/>
			<point x="182" y="700" type="curve" smooth="yes"/>
			<point x="358.1015228426" y="697"/>
			<point x="423" y="716"/>
			<point x="555" y="716" type="curve" smooth="yes"/>
			<point x="608" y="716"/>
			<point x="636.0689655172" y="679"/>
			<point x="634" y="639" type="curve" smooth="yes"/>
			<point x="633" y="613"/>
			<point x="612" y="596"/>
		</contour>
	</outline>
</glyph>
<glyph name="six" format="2">
	<unicode hex="0036"/>
	<advance width="700"/>
	<image fileName="one.glif-R_egular.tif" xScale="2.4058451983" yScale="2.4058451983" xOffset="-5999.3122690595" yOffset="-267.5277257882" color="0,0,0,0.16492"/>
	<outline>
		<contour>
			<point x="447" y="591" type="curve" smooth="yes"/>
			<point x="285" y="474"/>
			<point x="175" y="359"/>
			<point x="175" y="239" type="curve" smooth="yes"/>
			<point x="175" y="142"/>
			<point x="255" y="110"/>
			<point x="366" y="110" type="curve" smooth="yes"/>
			<point x="447" y="110"/>
			<point x="525" y="139"/>
			<point x="525" y="219" type="curve" smooth="yes"/>
			<point x="525" y="253"/>
			<point x="492" y="290"/>
			<point x="394" y="290" type="curve" smooth="yes"/>
			<point x="305" y="290"/>
			<point x="281" y="264"/>
			<point x="234" y="264" type="curve" smooth="yes"/>
			<point x="199" y="264"/>
			<point x="172" y="291"/>
			<point x="172" y="318" type="curve" smooth="yes"/>
			<point x="172" y="356"/>
			<point x="269" y="410"/>
			<point x="394" y="410" type="curve" smooth="yes"/>
			<point x="562" y="410"/>
			<point x="645" y="320"/>
			<point x="645" y="205" type="curve" smooth="yes"/>
			<point x="645" y="98"/>
			<point x="551" y="-10"/>
			<point x="366" y="-10" type="curve" smooth="yes"/>
			<point x="147" y="-10"/>
			<point x="55" y="82"/>
			<point x="55" y="239" type="curve" smooth="yes"/>
			<point x="55" y="385"/>
			<point x="169" y="537"/>
			<point x="363" y="678" type="curve" smooth="yes"/>
			<point x="398" y="703"/>
			<point x="409" y="711"/>
			<point x="428" y="711" type="curve" smooth="yes"/>
			<point x="461" y="711"/>
			<point x="486" y="681"/>
			<point x="486" y="649" type="curve" smooth="yes"/>
			<point x="486" y="627"/>
			<point x="480" y="614"/>
		</contour>
	</outline>
</glyph>
<glyph name="eight" format="2">
	<unicode hex="0038"/>
	<advance width="700"/>
	<image fileName="zero.png" xScale="2.3662938837" yScale="2.3662938837" xOffset="-7182.8248343698" yOffset="-192.644631698" color="0,0,0,0.16492"/>
	<outline>
		<contour>
			<point x="416" y="590" type="curve" smooth="yes"/>
			<point x="259" y="594"/>
			<point x="184" y="577"/>
			<point x="183" y="545" type="curve" smooth="yes"/>
			<point x="182" y="505"/>
			<point x="249" y="489"/>
			<point x="388" y="422" type="curve" smooth="yes"/>
			<point x="619" y="310"/>
			<point x="623" y="252"/>
			<point x="623" y="200" type="curve" smooth="yes"/>
			<point x="622" y="93"/>
			<point x="527" y="-12"/>
			<point x="276" y="-12" type="curve" smooth="yes"/>
			<point x="139" y="-12"/>
			<point x="91" y="51"/>
			<point x="91" y="125" type="curve" smooth="yes"/>
			<point x="92" y="176"/>
			<point x="113" y="242"/>
			<point x="310" y="389" type="curve" smooth="yes"/>
			<point x="397" y="454"/>
			<point x="476" y="550"/>
			<point x="492" y="601" type="curve" smooth="yes"/>
			<point x="502" y="632"/>
			<point x="536" y="650"/>
			<point x="567" y="640" type="curve" smooth="yes"/>
			<point x="598" y="630"/>
			<point x="616" y="596"/>
			<point x="606" y="565" type="curve" smooth="yes"/>
			<point x="586" y="500"/>
			<point x="493" y="376"/>
			<point x="382" y="293" type="curve" smooth="yes"/>
			<point x="233" y="182"/>
			<point x="216" y="152"/>
			<point x="209" y="88" type="curve" smooth="yes"/>
			<point x="204" y="50"/>
			<point x="146" y="147"/>
			<point x="186" y="131" type="curve" smooth="yes"/>
			<point x="218" y="118"/>
			<point x="246" y="108"/>
			<point x="276" y="108" type="curve" smooth="yes"/>
			<point x="401" y="108"/>
			<point x="502" y="139"/>
			<point x="503" y="202" type="curve" smooth="yes"/>
			<point x="504" y="236"/>
			<point x="451" y="259"/>
			<point x="336" y="314" type="curve" smooth="yes"/>
			<point x="95" y="430"/>
			<point x="62" y="471"/>
			<point x="63" y="547" type="curve" smooth="yes"/>
			<point x="64" y="650"/>
			<point x="164" y="716"/>
			<point x="418" y="710" type="curve" smooth="yes"/>
			<point x="451" y="709"/>
			<point x="478" y="681"/>
			<point x="477" y="649" type="curve" smooth="yes"/>
			<point x="476" y="616"/>
			<point x="448" y="589"/>
		</contour>
	</outline>
</glyph>
<glyph name="A" format="2">
	<unicode hex="0041"/>
	<advance width="723"/>
	<outline>
		<contour>
			<point x="636" y="-10" type="curve" smooth="yes"/>
			<point x="658" y="-10"/>
			<point x="673" y="4"/>
			<point x="673" y="28" type="curve" smooth="yes"/>
			<point x="673" y="44"/>
			<point x="669" y="55"/>
			<point x="663" y="64" type="curve" smooth="yes"/>
			<point x="607.2085796129" y="159.1197986927"/>
			<point x="593.7746963482" y="282.0277328663"/>
			<point x="581" y="397" type="curve" smooth="yes"/>
			<point x="558" y="611"/>
			<point x="527" y="718"/>
			<point x="403" y="718" type="curve" smooth="yes"/>
			<point x="321" y="718"/>
			<point x="249" y="653"/>
			<point x="191" y="536" type="curve"/>
			<point x="239" y="564" type="line"/>
			<point x="214" y="583"/>
			<point x="188" y="595"/>
			<point x="159" y="595" type="curve" smooth="yes"/>
			<point x="134" y="595"/>
			<point x="122" y="580"/>
			<point x="122" y="557" type="curve" smooth="yes"/>
			<point x="122" y="408"/>
			<point x="64" y="304"/>
			<point x="64" y="112" type="curve" smooth="yes"/>
			<point x="64" y="33"/>
			<point x="102.4470588235" y="-8"/>
			<point x="140" y="-8" type="curve" smooth="yes"/>
			<point x="168" y="-9"/>
			<point x="183" y="16"/>
			<point x="185" y="33" type="curve" smooth="yes"/>
			<point x="238.0116152329" y="375.0749511254"/>
			<point x="333.21875" y="599"/>
			<point x="402" y="599" type="curve" smooth="yes"/>
			<point x="426.7058823529" y="599"/>
			<point x="442.8468398853" y="559.758410464"/>
			<point x="462" y="384" type="curve" smooth="yes"/>
			<point x="473.8290329183" y="273.899001299"/>
			<point x="489.3931298214" y="135.6482317275"/>
			<point x="534" y="61" type="curve" smooth="yes"/>
			<point x="570" y="-1"/>
			<point x="599" y="-10"/>
		</contour>
		<contour>
			<point x="97" y="227" type="curve" smooth="yes"/>
			<point x="198.5941176471" y="227"/>
			<point x="325.3352941176" y="311"/>
			<point x="610" y="311" type="curve" smooth="yes"/>
			<point x="665" y="311"/>
			<point x="712" y="346.4594594595"/>
			<point x="712" y="393" type="curve" smooth="yes"/>
			<point x="712" y="423"/>
			<point x="701" y="431"/>
			<point x="606" y="431" type="curve" smooth="yes"/>
			<point x="395" y="431"/>
			<point x="210" y="380"/>
			<point x="57" y="320" type="curve" smooth="yes"/>
			<point x="34" y="311"/>
			<point x="25" y="300"/>
			<point x="25" y="282" type="curve" smooth="yes"/>
			<point x="25" y="251.6551724138"/>
			<point x="61.48" y="227"/>
		</contour>
	</outline>
</glyph>
<glyph name="G" format="2">
	<unicode hex="0047"/>
	<advance width="739"/>
	<outline>
		<contour>
			<point x="365" y="263" type="curve" smooth="yes"/>
			<point x="391.2445141066" y="263"/>
			<point x="484.0376175549" y="304"/>
			<point x="664" y="304" type="curve" smooth="yes"/>
			<point x="723" y="304"/>
			<point x="748" y="338"/>
			<point x="748" y="374" type="curve" smooth="yes"/>
			<point x="748" y="405"/>
			<point x="731" y="424"/>
			<point x="644" y="424" type="curve" smooth="yes"/>
			<point x="534.3348694549" y="423.0626911919"/>
			<point x="438.2060617971" y="404.4783596639"/>
			<point x="345" y="380" type="curve" smooth="yes"/>
			<point x="295" y="367"/>
			<point x="282" y="349"/>
			<point x="282" y="321" type="curve" smooth="yes"/>
			<point x="282" y="288"/>
			<point x="319" y="263"/>
		</contour>
		<contour>
			<point x="680" y="-103" type="curve" smooth="yes"/>
			<point x="700" y="-103"/>
			<point x="724" y="-89.3333333333"/>
			<point x="724" y="-62" type="curve" smooth="yes"/>
			<point x="724" y="-43"/>
			<point x="720" y="-30"/>
			<point x="700" y="5" type="curve" smooth="yes"/>
			<point x="663" y="68"/>
			<point x="634" y="200"/>
			<point x="634" y="297" type="curve" smooth="yes"/>
			<point x="634" y="329"/>
			<point x="607" y="348"/>
			<point x="561" y="348" type="curve" smooth="yes"/>
			<point x="528.6119402985" y="348"/>
			<point x="516.6864499383" y="333.442577668"/>
			<point x="499" y="302" type="curve" smooth="yes"/>
			<point x="430.642270988" y="180.3634527875"/>
			<point x="343" y="111"/>
			<point x="264" y="111" type="curve" smooth="yes"/>
			<point x="189" y="111"/>
			<point x="145" y="161"/>
			<point x="145" y="237" type="curve" smooth="yes"/>
			<point x="145" y="387"/>
			<point x="317.1586715867" y="575"/>
			<point x="446" y="575" type="curve" smooth="yes"/>
			<point x="465" y="575"/>
			<point x="446" y="513"/>
			<point x="494" y="513" type="curve" smooth="yes"/>
			<point x="533.1666666667" y="513"/>
			<point x="579" y="578"/>
			<point x="579" y="634" type="curve" smooth="yes"/>
			<point x="579" y="674"/>
			<point x="551.9009009009" y="708"/>
			<point x="485" y="708" type="curve" smooth="yes"/>
			<point x="279" y="708"/>
			<point x="25" y="481"/>
			<point x="25" y="244" type="curve" smooth="yes"/>
			<point x="25" y="88"/>
			<point x="111" y="-10"/>
			<point x="257" y="-10" type="curve" smooth="yes"/>
			<point x="365" y="-10"/>
			<point x="460" y="43"/>
			<point x="534" y="149" type="curve"/>
			<point x="544" y="71"/>
			<point x="561.4707598268" y="-6.6326746752"/>
			<point x="583" y="-47" type="curve" smooth="yes"/>
			<point x="604.3644545748" y="-86.5242409633"/>
			<point x="640" y="-103"/>
		</contour>
	</outline>
</glyph>
<glyph name="I" format="2">
	<unicode hex="0049"/>
	<advance width="608"/>
	<outline>
		<contour>
			<point x="126" y="-11" type="curve" smooth="yes"/>
			<point x="182.7302452316" y="-11"/>
			<point x="314.1553133515" y="0"/>
			<point x="473" y="0" type="curve" smooth="yes"/>
			<point x="551" y="0"/>
			<point x="584" y="31"/>
			<point x="584" y="69" type="curve" smooth="yes"/>
			<point x="584" y="95"/>
			<point x="568" y="115"/>
			<point x="498" y="115" type="curve" smooth="yes"/>
			<point x="328.8145695364" y="115"/>
			<point x="227.5704917394" y="116.2570491739"/>
			<point x="65" y="100" type="curve" smooth="yes"/>
			<point x="41" y="97"/>
			<point x="23" y="77"/>
			<point x="23" y="54" type="curve" smooth="yes"/>
			<point x="23" y="16"/>
			<point x="53" y="-11"/>
		</contour>
		<contour>
			<point x="92" y="563" type="curve" smooth="yes"/>
			<point x="170" y="563"/>
			<point x="229" y="580"/>
			<point x="452" y="580" type="curve" smooth="yes"/>
			<point x="519" y="580"/>
			<point x="569" y="609"/>
			<point x="569" y="654" type="curve" smooth="yes"/>
			<point x="569" y="691"/>
			<point x="552" y="700"/>
			<point x="496" y="700" type="curve" smooth="yes"/>
			<point x="441" y="700"/>
			<point x="191" y="700"/>
			<point x="71" y="677" type="curve" smooth="yes"/>
			<point x="33" y="669"/>
			<point x="25" y="653"/>
			<point x="25" y="629" type="curve" smooth="yes"/>
			<point x="25" y="592"/>
			<point x="45" y="563"/>
		</contour>
		<contour>
			<point x="299" y="80" type="curve" smooth="yes"/>
			<point x="327" y="80"/>
			<point x="343" y="96"/>
			<point x="343" y="129" type="curve" smooth="yes"/>
			<point x="343" y="334"/>
			<point x="360" y="499"/>
			<point x="360" y="585" type="curve" smooth="yes"/>
			<point x="360" y="624"/>
			<point x="326" y="655"/>
			<point x="285" y="655" type="curve" smooth="yes"/>
			<point x="250" y="655"/>
			<point x="239" y="638"/>
			<point x="239" y="604" type="curve" smooth="yes"/>
			<point x="239" y="485"/>
			<point x="223" y="322"/>
			<point x="223" y="157" type="curve" smooth="yes"/>
			<point x="223" y="110"/>
			<point x="253" y="80"/>
		</contour>
	</outline>
</glyph>
<glyph name="R" format="2">
	<unicode hex="0052"/>
	<advance width="717"/>
	<outline>
		<contour>
			<point x="79" y="650" type="curve" smooth="yes"/>
			<point x="41" y="650"/>
			<point x="29" y="619"/>
			<point x="43" y="579" type="curve" smooth="yes"/>
			<point x="74" y="491"/>
			<point x="88" y="436"/>
			<point x="89" y="354" type="curve"/>
			<point x="54" y="256"/>
			<point x="38" y="178"/>
			<point x="38" y="116" type="curve" smooth="yes"/>
			<point x="38" y="30.4785906993"/>
			<point x="80.8954715763" y="-13"/>
			<point x="124" y="-13" type="curve" smooth="yes"/>
			<point x="154" y="-13"/>
			<point x="164" y="-1"/>
			<point x="164" y="44" type="curve" smooth="yes"/>
			<point x="164" y="406"/>
			<point x="346" y="590"/>
			<point x="475" y="590" type="curve" smooth="yes"/>
			<point x="505" y="590"/>
			<point x="517" y="572"/>
			<point x="517" y="548" type="curve" smooth="yes"/>
			<point x="517" y="485"/>
			<point x="406" y="386"/>
			<point x="196" y="298" type="curve" smooth="yes"/>
			<point x="160" y="283"/>
			<point x="148" y="238"/>
			<point x="171" y="207" type="curve" smooth="yes"/>
			<point x="250" y="105"/>
			<point x="521" y="-12"/>
			<point x="580" y="-12" type="curve" smooth="yes"/>
			<point x="635" y="-12"/>
			<point x="668" y="14"/>
			<point x="668" y="51" type="curve" smooth="yes"/>
			<point x="668" y="74"/>
			<point x="648" y="89"/>
			<point x="594" y="104" type="curve" smooth="yes"/>
			<point x="488" y="136"/>
			<point x="388" y="187"/>
			<point x="317" y="233" type="curve"/>
			<point x="544" y="331"/>
			<point x="637" y="459"/>
			<point x="637" y="553" type="curve"/>
			<point x="637" y="644"/>
			<point x="588" y="710"/>
			<point x="466" y="710" type="curve" smooth="yes"/>
			<point x="363" y="710"/>
			<point x="248" y="639"/>
			<point x="169" y="493" type="curve"/>
			<point x="192" y="493" type="line"/>
			<point x="177" y="602"/>
			<point x="152" y="650"/>
		</contour>
	</outline>
</glyph>
<glyph name="S" format="2">
	<unicode hex="0053"/>
	<advance width="551"/>
	<outline>
		<contour>
			<point x="202" y="-9" type="curve" smooth="yes"/>
			<point x="362" y="-9"/>
			<point x="516" y="36"/>
			<point x="516" y="127" type="curve" smooth="yes"/>
			<point x="516" y="288"/>
			<point x="170" y="341"/>
			<point x="170" y="451" type="curve" smooth="yes"/>
			<point x="170" y="487"/>
			<point x="280" y="557"/>
			<point x="459" y="597" type="curve" smooth="yes"/>
			<point x="492" y="604"/>
			<point x="503" y="620"/>
			<point x="503" y="653" type="curve" smooth="yes"/>
			<point x="503" y="682.8902439024"/>
			<point x="483" y="710"/>
			<point x="442" y="710" type="curve" smooth="yes"/>
			<point x="318" y="710"/>
			<point x="47" y="589"/>
			<point x="47" y="455" type="curve" smooth="yes"/>
			<point x="47" y="255"/>
			<point x="359.9817178021" y="202.0609406596"/>
			<point x="378" y="142" type="curve"/>
			<point x="350" y="124"/>
			<point x="284.9461077844" y="111"/>
			<point x="193" y="111" type="curve" smooth="yes"/>
			<point x="124" y="111"/>
			<point x="111" y="116"/>
			<point x="78" y="116" type="curve" smooth="yes"/>
			<point x="51" y="116"/>
			<point x="42" y="103"/>
			<point x="42" y="81" type="curve" smooth="yes"/>
			<point x="42" y="25"/>
			<point x="95" y="-9"/>
		</contour>
	</outline>
</glyph>
<glyph name="W" format="2">
	<unicode hex="0057"/>
	<advance width="938"/>
	<image fileName="W_.png" xScale="2.149419181" yScale="2.149419181" xOffset="-6246.5221094932" yOffset="-188.078106569" color="0,0,0,0.26332"/>
	<outline>
		<contour>
			<point x="157" y="628" type="curve" smooth="yes"/>
			<point x="154.0005146276" y="677.9914228729"/>
			<point x="107.5490196078" y="712"/>
			<point x="60" y="712" type="curve" smooth="yes"/>
			<point x="36" y="712"/>
			<point x="18" y="688"/>
			<point x="20" y="663" type="curve" smooth="yes"/>
			<point x="33.9995065745" y="468.0068727118"/>
			<point x="97.0749549514" y="213.829952946"/>
			<point x="164" y="62" type="curve" smooth="yes"/>
			<point x="191.0564206068" y="1.8746208739"/>
			<point x="220.6913580247" y="-8"/>
			<point x="246" y="-8" type="curve" smooth="yes"/>
			<point x="271" y="-8"/>
			<point x="287.0373084266" y="8.1927602044"/>
			<point x="293" y="39" type="curve" smooth="yes"/>
			<point x="329" y="230"/>
			<point x="387.6684228896" y="369.1803535715"/>
			<point x="483" y="509" type="curve" smooth="yes"/>
			<point x="498.5594727856" y="529.7459637141"/>
			<point x="460" y="562"/>
			<point x="465" y="531" type="curve" smooth="yes"/>
			<point x="489" y="394"/>
			<point x="564" y="168"/>
			<point x="645" y="54" type="curve" smooth="yes"/>
			<point x="688" y="-6"/>
			<point x="710.4731182796" y="-12"/>
			<point x="732" y="-12" type="curve" smooth="yes"/>
			<point x="750.8571428571" y="-12"/>
			<point x="767" y="1"/>
			<point x="784" y="42" type="curve" smooth="yes"/>
			<point x="843" y="188"/>
			<point x="855.7340058049" y="458.1269934109"/>
			<point x="895" y="587" type="curve" smooth="yes"/>
			<point x="912" y="642"/>
			<point x="907.1951219512" y="712"/>
			<point x="845" y="712" type="curve" smooth="yes"/>
			<point x="822.4210526316" y="712"/>
			<point x="808" y="705"/>
			<point x="793" y="671" type="curve" smooth="yes"/>
			<point x="748" y="567"/>
			<point x="738.1496850897" y="313.8763852529"/>
			<point x="691" y="181" type="curve" smooth="yes"/>
			<point x="680" y="149"/>
			<point x="752" y="112"/>
			<point x="730" y="145" type="curve" smooth="yes"/>
			<point x="650" y="262"/>
			<point x="616" y="397"/>
			<point x="596" y="498" type="curve" smooth="yes"/>
			<point x="575" y="603"/>
			<point x="535" y="652"/>
			<point x="475" y="652" type="curve" smooth="yes"/>
			<point x="439" y="652"/>
			<point x="406" y="622"/>
			<point x="380" y="581" type="curve" smooth="yes"/>
			<point x="319" y="487"/>
			<point x="253" y="358"/>
			<point x="206" y="186" type="curve" smooth="yes"/>
			<point x="186" y="111"/>
			<point x="276" y="102"/>
			<point x="248" y="186" type="curve" smooth="yes"/>
			<point x="199.6988682861" y="326.8783008323"/>
			<point x="166.0024912751" y="495.963461299"/>
		</contour>
	</outline>
</glyph>
<glyph name="Y" format="2">
	<unicode hex="0059"/>
	<advance width="606"/>
	<image fileName="W_.png" xScale="2.149419181" yScale="2.149419181" xOffset="-7799.9384359798" yOffset="-239.078106569" color="0,0,0,0.26332"/>
	<outline>
		<contour>
			<point x="555" y="574" type="curve" smooth="yes"/>
			<point x="425" y="454"/>
			<point x="320" y="239"/>
			<point x="280" y="39" type="curve" smooth="yes"/>
			<point x="272" y="-1"/>
			<point x="255" y="-14"/>
			<point x="222" y="-14" type="curve" smooth="yes"/>
			<point x="191" y="-14"/>
			<point x="159" y="41"/>
			<point x="174" y="109" type="curve" smooth="yes"/>
			<point x="209" y="278"/>
			<point x="328" y="532"/>
			<point x="490" y="683" type="curve" smooth="yes"/>
			<point x="517" y="708"/>
			<point x="532" y="713"/>
			<point x="547" y="713" type="curve" smooth="yes"/>
			<point x="571" y="713"/>
			<point x="595" y="679"/>
			<point x="595" y="652" type="curve" smooth="yes"/>
			<point x="595" y="623"/>
			<point x="589" y="606"/>
		</contour>
		<contour>
			<point x="115" y="681" type="curve" smooth="yes"/>
			<point x="208" y="540"/>
			<point x="245" y="519"/>
			<point x="332" y="355" type="curve" smooth="yes"/>
			<point x="348.1047796436" y="324.132505683"/>
			<point x="302.5405274463" y="277"/>
			<point x="279" y="277" type="curve" smooth="yes"/>
			<point x="261" y="277"/>
			<point x="249" y="289"/>
			<point x="239" y="306" type="curve" smooth="yes"/>
			<point x="149" y="455"/>
			<point x="108" y="479"/>
			<point x="47" y="572" type="curve" smooth="yes"/>
			<point x="24" y="608"/>
			<point x="18" y="623"/>
			<point x="18" y="654" type="curve" smooth="yes"/>
			<point x="18" y="686"/>
			<point x="39" y="711"/>
			<point x="65" y="711" type="curve" smooth="yes"/>
			<point x="84" y="711"/>
			<point x="100" y="703"/>
		</contour>
	</outline>
</glyph>
<glyph name="Z" format="2">
	<unicode hex="005A"/>
	<advance width="646"/>
	<image fileName="W_.png" xScale="2.149419181" yScale="2.149419181" xOffset="-8482.561352475" yOffset="-239.078106569" color="0,0,0,0.26332"/>
	<outline>
		<contour>
			<point x="91" y="681" type="curve" smooth="yes"/>
			<point x="173" y="700"/>
			<point x="252" y="710"/>
			<point x="330" y="710" type="curve" smooth="yes"/>
			<point x="526" y="710"/>
			<point x="574" y="639"/>
			<point x="574" y="564" type="curve" smooth="yes"/>
			<point x="574" y="470"/>
			<point x="539" y="427"/>
			<point x="342" y="298" type="curve" smooth="yes"/>
			<point x="161.3850454347" y="179.3101727143"/>
			<point x="157" y="162"/>
			<point x="157" y="90" type="curve" smooth="yes"/>
			<point x="157" y="52.9444444444"/>
			<point x="96" y="113"/>
			<point x="123" y="113" type="curve" smooth="yes"/>
			<point x="215" y="113"/>
			<point x="324.7232704403" y="120"/>
			<point x="439" y="120" type="curve" smooth="yes"/>
			<point x="512.9882578872" y="118.0003173544"/>
			<point x="618" y="99.8558558559"/>
			<point x="618" y="34" type="curve" smooth="yes"/>
			<point x="618" y="9"/>
			<point x="598" y="-7"/>
			<point x="571" y="-7" type="curve" smooth="yes"/>
			<point x="521" y="-7"/>
			<point x="472" y="0"/>
			<point x="423" y="0" type="curve" smooth="yes"/>
			<point x="340" y="0"/>
			<point x="262" y="-7"/>
			<point x="195" y="-7" type="curve" smooth="yes"/>
			<point x="78" y="-7"/>
			<point x="37" y="48"/>
			<point x="37" y="120" type="curve" smooth="yes"/>
			<point x="37" y="193.6888111888"/>
			<point x="74" y="273"/>
			<point x="279" y="401" type="curve" smooth="yes"/>
			<point x="438" y="500"/>
			<point x="454" y="519"/>
			<point x="454" y="584" type="curve" smooth="yes"/>
			<point x="454" y="622"/>
			<point x="489.7140743268" y="557.9472152138"/>
			<point x="466" y="572" type="curve" smooth="yes"/>
			<point x="444" y="585"/>
			<point x="404" y="590"/>
			<point x="354" y="590" type="curve" smooth="yes"/>
			<point x="279.9868421053" y="590"/>
			<point x="174" y="565"/>
			<point x="129" y="565" type="curve" smooth="yes"/>
			<point x="92" y="565"/>
			<point x="45" y="584.578313253"/>
			<point x="45" y="630" type="curve" smooth="yes"/>
			<point x="45" y="653"/>
			<point x="59" y="673"/>
		</contour>
	</outline>
</glyph>
<glyph name="b" format="2">
	<unicode hex="0062"/>
	<advance width="575"/>
	<image fileName="b.png" xScale="2.580311745" yScale="2.580311745" xOffset="-92.140747017" yOffset="-580.570142633" color="0,0,0,0.24109"/>
	<outline>
		<contour>
			<point x="182" y="718" type="curve" smooth="yes"/>
			<point x="182" y="643"/>
			<point x="162" y="605"/>
			<point x="162" y="432" type="curve" smooth="yes"/>
			<point x="162" y="405"/>
			<point x="163" y="376"/>
			<point x="164" y="342" type="curve" smooth="yes"/>
			<point x="166" y="282"/>
			<point x="116" y="301"/>
			<point x="130" y="337" type="curve" smooth="yes"/>
			<point x="177" y="456"/>
			<point x="270" y="510"/>
			<point x="349" y="510" type="curve" smooth="yes"/>
			<point x="465" y="510"/>
			<point x="547" y="446"/>
			<point x="547" y="295" type="curve" smooth="yes"/>
			<point x="547" y="110"/>
			<point x="372" y="-10"/>
			<point x="190" y="-10" type="curve" smooth="yes"/>
			<point x="123" y="-10"/>
			<point x="45" y="12"/>
			<point x="45" y="73" type="curve" smooth="yes"/>
			<point x="45" y="104"/>
			<point x="67" y="119"/>
			<point x="99" y="119" type="curve" smooth="yes"/>
			<point x="120" y="119"/>
			<point x="150" y="109"/>
			<point x="178" y="109" type="curve" smooth="yes"/>
			<point x="298" y="109"/>
			<point x="430" y="172"/>
			<point x="430" y="304" type="curve" smooth="yes"/>
			<point x="430" y="348"/>
			<point x="416" y="390"/>
			<point x="363" y="390" type="curve" smooth="yes"/>
			<point x="265" y="390"/>
			<point x="202" y="278"/>
			<point x="173" y="118" type="curve" smooth="yes"/>
			<point x="168" y="95"/>
			<point x="158" y="89"/>
			<point x="147" y="89" type="curve" smooth="yes"/>
			<point x="115" y="89"/>
			<point x="84" y="112"/>
			<point x="77" y="150" type="curve" smooth="yes"/>
			<point x="58" y="256"/>
			<point x="48" y="370"/>
			<point x="48" y="434" type="curve" smooth="yes"/>
			<point x="48" y="609"/>
			<point x="72" y="678"/>
			<point x="64" y="768" type="curve" smooth="yes"/>
			<point x="62" y="789"/>
			<point x="76" y="810"/>
			<point x="97" y="810" type="curve" smooth="yes"/>
			<point x="140" y="810"/>
			<point x="182" y="777"/>
		</contour>
	</outline>
</glyph>
<glyph name="c" format="2">
	<unicode hex="0063"/>
	<advance width="482"/>
	<image fileName="b.png" xScale="2.580311745" yScale="2.580311745" xOffset="-593.3109110762" yOffset="-580.570142633" color="0,0,0,0.24109"/>
	<outline>
		<contour>
			<point x="454" y="121" type="curve" smooth="yes"/>
			<point x="454" y="163"/>
			<point x="444" y="179"/>
			<point x="423" y="179" type="curve" smooth="yes"/>
			<point x="379" y="179"/>
			<point x="375" y="111"/>
			<point x="266" y="111" type="curve" smooth="yes"/>
			<point x="200" y="111"/>
			<point x="146" y="149"/>
			<point x="146" y="210" type="curve" smooth="yes"/>
			<point x="146" y="303"/>
			<point x="224" y="390"/>
			<point x="331" y="390" type="curve" smooth="yes"/>
			<point x="360" y="390"/>
			<point x="361" y="377"/>
			<point x="382" y="377" type="curve" smooth="yes"/>
			<point x="409" y="377"/>
			<point x="423" y="402"/>
			<point x="423" y="434" type="curve" smooth="yes"/>
			<point x="423" y="496"/>
			<point x="382" y="510"/>
			<point x="341" y="510" type="curve" smooth="yes"/>
			<point x="171" y="510"/>
			<point x="26" y="382"/>
			<point x="26" y="220" type="curve" smooth="yes"/>
			<point x="26" y="84"/>
			<point x="129" y="-9"/>
			<point x="266" y="-9" type="curve" smooth="yes"/>
			<point x="375" y="-9"/>
			<point x="454" y="41"/>
		</contour>
	</outline>
</glyph>
<glyph name="f" format="2">
	<unicode hex="0066"/>
	<advance width="372"/>
	<outline>
		<contour>
			<point x="149" y="359" type="curve" smooth="yes"/>
			<point x="201.7228565811" y="380.0891426324"/>
			<point x="260.1526185847" y="386.8270772477"/>
			<point x="321" y="393" type="curve" smooth="yes"/>
			<point x="346" y="395"/>
			<point x="357" y="408"/>
			<point x="357" y="430" type="curve" smooth="yes"/>
			<point x="357" y="467.05"/>
			<point x="328.6129032258" y="506"/>
			<point x="269" y="506" type="curve" smooth="yes"/>
			<point x="235.904109589" y="506"/>
			<point x="167.1573155767" y="498.8005657211"/>
			<point x="118" y="483" type="curve" smooth="yes"/>
			<point x="80" y="470"/>
			<point x="64" y="430"/>
			<point x="64" y="396" type="curve" smooth="yes"/>
			<point x="64" y="365"/>
			<point x="88" y="351"/>
			<point x="116" y="351" type="curve" smooth="yes"/>
			<point x="127" y="351"/>
			<point x="139" y="355"/>
		</contour>
		<contour>
			<point x="150" y="-169" type="curve" smooth="yes"/>
			<point x="182" y="-169"/>
			<point x="197" y="-154"/>
			<point x="197" y="-99" type="curve" smooth="yes"/>
			<point x="197" y="155"/>
			<point x="160" y="296"/>
			<point x="160" y="443" type="curve" smooth="yes"/>
			<point x="160" y="586"/>
			<point x="179" y="655"/>
			<point x="328" y="702" type="curve" smooth="yes"/>
			<point x="353" y="710"/>
			<point x="362" y="730"/>
			<point x="362" y="753" type="curve" smooth="yes"/>
			<point x="362" y="788.1279069767"/>
			<point x="313.1222222222" y="810"/>
			<point x="279" y="810" type="curve" smooth="yes"/>
			<point x="160.4457831325" y="810"/>
			<point x="39" y="689"/>
			<point x="39" y="489" type="curve" smooth="yes"/>
			<point x="39" y="272"/>
			<point x="77" y="186.7723880597"/>
			<point x="77" y="-62" type="curve" smooth="yes"/>
			<point x="77" y="-130.4098360656"/>
			<point x="113.5" y="-169"/>
		</contour>
	</outline>
</glyph>
<glyph name="g" format="2">
	<unicode hex="0067"/>
	<advance width="600"/>
	<outline>
		<contour>
			<point x="430" y="463" type="curve" smooth="yes"/>
			<point x="472" y="463"/>
			<point x="506" y="428"/>
			<point x="509" y="390" type="curve" smooth="yes"/>
			<point x="523" y="221"/>
			<point x="575" y="142"/>
			<point x="575" y="-59" type="curve" smooth="yes"/>
			<point x="575" y="-184"/>
			<point x="506" y="-260"/>
			<point x="385" y="-260" type="curve" smooth="yes"/>
			<point x="178" y="-260"/>
			<point x="95" y="-172"/>
			<point x="95" y="-110" type="curve" smooth="yes"/>
			<point x="95" y="-61"/>
			<point x="131" y="-19"/>
			<point x="168" y="-19" type="curve" smooth="yes"/>
			<point x="190" y="-19"/>
			<point x="198" y="-30"/>
			<point x="198" y="-51" type="curve" smooth="yes"/>
			<point x="198" y="-105"/>
			<point x="276" y="-141"/>
			<point x="375" y="-141" type="curve" smooth="yes"/>
			<point x="436" y="-141"/>
			<point x="455" y="-108"/>
			<point x="455" y="-48" type="curve" smooth="yes"/>
			<point x="455" y="83"/>
			<point x="416" y="146"/>
			<point x="407" y="237" type="curve"/>
			<point x="460" y="235" type="line"/>
			<point x="419" y="134"/>
			<point x="340" y="91"/>
			<point x="252" y="91" type="curve" smooth="yes"/>
			<point x="112" y="91"/>
			<point x="25" y="157"/>
			<point x="25" y="285" type="curve" smooth="yes"/>
			<point x="25" y="405"/>
			<point x="145" y="512"/>
			<point x="278" y="512" type="curve" smooth="yes"/>
			<point x="376" y="512"/>
			<point x="410" y="453"/>
			<point x="410" y="397" type="curve" smooth="yes"/>
			<point x="410" y="384"/>
			<point x="399" y="363"/>
			<point x="386" y="363" type="curve" smooth="yes"/>
			<point x="350" y="363"/>
			<point x="345" y="392"/>
			<point x="299" y="392" type="curve" smooth="yes"/>
			<point x="221" y="392"/>
			<point x="145" y="336"/>
			<point x="145" y="279" type="curve" smooth="yes"/>
			<point x="145" y="235"/>
			<point x="178" y="211"/>
			<point x="252" y="211" type="curve" smooth="yes"/>
			<point x="337" y="211"/>
			<point x="397" y="270"/>
			<point x="397" y="424" type="curve" smooth="yes"/>
			<point x="397" y="451"/>
			<point x="405" y="463"/>
		</contour>
	</outline>
</glyph>
<glyph name="m" format="2">
	<unicode hex="006D"/>
	<advance width="867"/>
	<image fileName="b.png" xScale="2.580311745" yScale="2.580311745" xOffset="-2898.3109110762" yOffset="-580.570142633" color="0,0,0,0.24109"/>
	<outline>
		<contour>
			<point x="169" y="372" type="curve" smooth="yes"/>
			<point x="169" y="300"/>
			<point x="109" y="314"/>
			<point x="134" y="377" type="curve" smooth="yes"/>
			<point x="172" y="472"/>
			<point x="224" y="510"/>
			<point x="268" y="510" type="curve" smooth="yes"/>
			<point x="358" y="510"/>
			<point x="392" y="431"/>
			<point x="417" y="297" type="curve" smooth="yes"/>
			<point x="429" y="231"/>
			<point x="433" y="209"/>
			<point x="439" y="185" type="curve" smooth="yes"/>
			<point x="454" y="112"/>
			<point x="392" y="138"/>
			<point x="410" y="200" type="curve" smooth="yes"/>
			<point x="462" y="378"/>
			<point x="545" y="510"/>
			<point x="634" y="510" type="curve" smooth="yes"/>
			<point x="734" y="510"/>
			<point x="775" y="429"/>
			<point x="790" y="262" type="curve" smooth="yes"/>
			<point x="806" y="84"/>
			<point x="842" y="85"/>
			<point x="842" y="35" type="curve" smooth="yes"/>
			<point x="842" y="11"/>
			<point x="823" y="-9"/>
			<point x="794" y="-9" type="curve" smooth="yes"/>
			<point x="733" y="-9"/>
			<point x="698" y="43"/>
			<point x="681" y="187" type="curve" smooth="yes"/>
			<point x="663" y="342"/>
			<point x="652" y="366"/>
			<point x="626" y="403" type="curve" smooth="yes"/>
			<point x="603" y="435"/>
			<point x="676" y="431"/>
			<point x="643" y="398" type="curve" smooth="yes"/>
			<point x="562" y="321"/>
			<point x="528" y="192"/>
			<point x="484" y="27" type="curve" smooth="yes"/>
			<point x="478" y="4"/>
			<point x="460" y="-9"/>
			<point x="443" y="-9" type="curve" smooth="yes"/>
			<point x="371" y="-9"/>
			<point x="336" y="89"/>
			<point x="321" y="178" type="curve" smooth="yes"/>
			<point x="301" y="298"/>
			<point x="284" y="358"/>
			<point x="249" y="404" type="curve" smooth="yes"/>
			<point x="231" y="429"/>
			<point x="302" y="419"/>
			<point x="277" y="390" type="curve" smooth="yes"/>
			<point x="210" y="312"/>
			<point x="185" y="166"/>
			<point x="174" y="38" type="curve" smooth="yes"/>
			<point x="171" y="7"/>
			<point x="146" y="-9"/>
			<point x="122" y="-9" type="curve" smooth="yes"/>
			<point x="61" y="-9"/>
			<point x="43" y="78"/>
			<point x="43" y="166" type="curve"/>
			<point x="43" y="227"/>
			<point x="51" y="294"/>
			<point x="51" y="354" type="curve" smooth="yes"/>
			<point x="51" y="386"/>
			<point x="45" y="413"/>
			<point x="45" y="440" type="curve" smooth="yes"/>
			<point x="45" y="458"/>
			<point x="59" y="474"/>
			<point x="83" y="474" type="curve" smooth="yes"/>
			<point x="145" y="474"/>
			<point x="169" y="425"/>
		</contour>
	</outline>
</glyph>
<glyph name="p" format="2">
	<unicode hex="0070"/>
	<advance width="550"/>
	<outline>
		<contour>
			<point x="153" y="384" type="curve" smooth="yes"/>
			<point x="153" y="223"/>
			<point x="207" y="101"/>
			<point x="207" y="-46" type="curve" smooth="yes"/>
			<point x="207" y="-165"/>
			<point x="189" y="-261"/>
			<point x="127" y="-261" type="curve" smooth="yes"/>
			<point x="95" y="-261"/>
			<point x="64" y="-235"/>
			<point x="64" y="-176" type="curve" smooth="yes"/>
			<point x="64" y="-129"/>
			<point x="81" y="-108"/>
			<point x="81" y="-11" type="curve" smooth="yes"/>
			<point x="81" y="131"/>
			<point x="33" y="262"/>
			<point x="28" y="406" type="curve" smooth="yes"/>
			<point x="27" y="438"/>
			<point x="44" y="456"/>
			<point x="72" y="456" type="curve" smooth="yes"/>
			<point x="115" y="456"/>
			<point x="153" y="423"/>
		</contour>
		<contour>
			<point x="65" y="491"/>
			<point x="106" y="511"/>
			<point x="196" y="511" type="curve" smooth="yes"/>
			<point x="373" y="511"/>
			<point x="522" y="385"/>
			<point x="522" y="191" type="curve" smooth="yes"/>
			<point x="522" y="80"/>
			<point x="432" y="-10"/>
			<point x="294" y="-10" type="curve" smooth="yes"/>
			<point x="186.84" y="-10"/>
			<point x="106" y="53.4736842105"/>
			<point x="106" y="124" type="curve" smooth="yes"/>
			<point x="106" y="143.6551724138"/>
			<point x="120.1666666667" y="162"/>
			<point x="140" y="162" type="curve" smooth="yes"/>
			<point x="186.5753424658" y="162"/>
			<point x="191.2328767123" y="110"/>
			<point x="276" y="110" type="curve" smooth="yes"/>
			<point x="351" y="110"/>
			<point x="402" y="137"/>
			<point x="402" y="208" type="curve" smooth="yes"/>
			<point x="402" y="321"/>
			<point x="299" y="391"/>
			<point x="196" y="391" type="curve" smooth="yes"/>
			<point x="171.8140591203" y="391"/>
			<point x="149.3187587756" y="383"/>
			<point x="126" y="383" type="curve" smooth="yes"/>
			<point x="94" y="383"/>
			<point x="65" y="410"/>
			<point x="65" y="442" type="curve" smooth="yes"/>
		</contour>
	</outline>
</glyph>
<glyph name="q" format="2">
	<unicode hex="0071"/>
	<advance width="558"/>
	<outline>
		<contour>
			<point x="412" y="329" type="curve" smooth="yes"/>
			<point x="439" y="329"/>
			<point x="461" y="354"/>
			<point x="461" y="383" type="curve" smooth="yes"/>
			<point x="461" y="438"/>
			<point x="390" y="510"/>
			<point x="309" y="510" type="curve" smooth="yes"/>
			<point x="164" y="510"/>
			<point x="15" y="343"/>
			<point x="15" y="188" type="curve" smooth="yes"/>
			<point x="15" y="69"/>
			<point x="78" y="-10"/>
			<point x="205" y="-10" type="curve" smooth="yes"/>
			<point x="273.6507177033" y="-10"/>
			<point x="355" y="16"/>
			<point x="415" y="94" type="curve" smooth="yes"/>
			<point x="462" y="152"/>
			<point x="394" y="165.75"/>
			<point x="394" y="123" type="curve" smooth="yes"/>
			<point x="394" y="-39"/>
			<point x="399" y="-92"/>
			<point x="399" y="-191" type="curve" smooth="yes"/>
			<point x="399" y="-225"/>
			<point x="426" y="-260"/>
			<point x="463" y="-260" type="curve" smooth="yes"/>
			<point x="501.3606557377" y="-260"/>
			<point x="540.293631116" y="-230.9794202074"/>
			<point x="580" y="-196" type="curve" smooth="yes"/>
			<point x="592" y="-185"/>
			<point x="600" y="-169"/>
			<point x="600" y="-151" type="curve" smooth="yes"/>
			<point x="600" y="-109.2535211268"/>
			<point x="584.25" y="-75"/>
			<point x="565" y="-75" type="curve" smooth="yes"/>
			<point x="542" y="-75"/>
			<point x="525" y="-98"/>
			<point x="497" y="-114" type="curve" smooth="yes"/>
			<point x="472" y="-128"/>
			<point x="513" y="-161"/>
			<point x="513" y="-121" type="curve" smooth="yes"/>
			<point x="513" y="10"/>
			<point x="506" y="64"/>
			<point x="509" y="140" type="curve" smooth="yes"/>
			<point x="511" y="200"/>
			<point x="532" y="247"/>
			<point x="532" y="304" type="curve" smooth="yes"/>
			<point x="532" y="340"/>
			<point x="506" y="368"/>
			<point x="464" y="368" type="curve" smooth="yes"/>
			<point x="442" y="368"/>
			<point x="430" y="356"/>
			<point x="425" y="336" type="curve" smooth="yes"/>
			<point x="390" y="198"/>
			<point x="306" y="110"/>
			<point x="205" y="110" type="curve" smooth="yes"/>
			<point x="160" y="110"/>
			<point x="135" y="134"/>
			<point x="135" y="179" type="curve" smooth="yes"/>
			<point x="135" y="273"/>
			<point x="234" y="389"/>
			<point x="309" y="389" type="curve" smooth="yes"/>
			<point x="339" y="389"/>
			<point x="349" y="371"/>
			<point x="370" y="346" type="curve" smooth="yes"/>
			<point x="380" y="334"/>
			<point x="396" y="329"/>
		</contour>
	</outline>
</glyph>
<glyph name="r" format="2">
	<unicode hex="0072"/>
	<advance width="468"/>
	<outline>
		<contour>
			<point x="153" y="-12" type="curve" smooth="yes"/>
			<point x="190" y="-12"/>
			<point x="199" y="8"/>
			<point x="209" y="82" type="curve" smooth="yes"/>
			<point x="231" y="249"/>
			<point x="255" y="310"/>
			<point x="424" y="387" type="curve" smooth="yes"/>
			<point x="446" y="397"/>
			<point x="454" y="419"/>
			<point x="454" y="439" type="curve" smooth="yes"/>
			<point x="454" y="477"/>
			<point x="438" y="509"/>
			<point x="406" y="509" type="curve" smooth="yes"/>
			<point x="357" y="509"/>
			<point x="198" y="429"/>
			<point x="155" y="301" type="curve"/>
			<point x="183" y="313" type="line"/>
			<point x="164" y="449"/>
			<point x="136" y="500"/>
			<point x="63" y="500" type="curve" smooth="yes"/>
			<point x="39" y="500"/>
			<point x="20" y="486"/>
			<point x="20" y="465" type="curve" smooth="yes"/>
			<point x="20" y="444"/>
			<point x="25" y="431"/>
			<point x="42" y="398" type="curve" smooth="yes"/>
			<point x="74" y="336"/>
			<point x="83" y="200"/>
			<point x="83" y="81" type="curve" smooth="yes"/>
			<point x="83" y="30"/>
			<point x="117" y="-12"/>
		</contour>
	</outline>
</glyph>
